<!DOCTYPE svg PUBLIC "-//W3C//DTD SVG 1.1//EN" "http://www.w3.org/Graphics/SVG/1.1/DTD/svg11.dtd">
<!-- Uploaded to: SVG Repo, www.svgrepo.com, Transformed by: SVG Repo Mixer Tools -->
<svg fill="#000000" width="800px" height="800px" viewBox="-10 -10 120.00 120.00" version="1.1" xml:space="preserve" xmlns="http://www.w3.org/2000/svg" xmlns:xlink="http://www.w3.org/1999/xlink" stroke="#000000" stroke-width="0.001" transform="rotate(0)">
<g id="SVGRepo_bgCarrier" stroke-width="0">
<path transform="translate(-10, -10), scale(3.75)" d="M16,27.22899316996336C19.567451870640976,27.18283324346821,24.051409685780058,29.05962753040004,26.24915232521215,26.24915232521215C28.459255531604708,23.422870416208657,25.112389245021905,19.57246766861264,24.78087699972093,16C24.5083082392068,13.062723630234213,26.477818603554606,9.687784734548348,24.508508379963644,7.491491620036355C22.517904673791232,5.271450734036977,18.980362632997718,6.299359571123576,16,6.207038249820471C12.8541457558781,6.109590571061933,9.346715699849323,4.910426552724038,6.947512742188614,6.947512742188611C4.468095383710747,9.052706403586335,4.709085711015416,12.756488428980974,4.4662205670028925,15.999999999999998C4.192813042415448,19.651411046277257,2.858541150272313,23.96359230447267,5.482139413460118,26.517860586539875C8.099546218835886,29.06610102336456,12.347314147389941,27.27625595488106,16,27.22899316996336" fill="#14c240" strokewidth="0"/>
</g>
<g id="SVGRepo_tracerCarrier" stroke-linecap="round" stroke-linejoin="round"/>
<g id="SVGRepo_iconCarrier"> <g id="_x31_"/> <g id="_x32_"/> <g id="_x33_"/> <g id="_x34_"/> <g id="_x35_"/> <g id="_x36_"/> <g id="_x37_"/> <g id="_x38_"/> <g id="_x39_"/> <g id="_x31_0"/> <g id="_x31_1"/> <g id="_x31_2"> <path d="M84.3,59.7v-5.4c0-0.8-0.7-1.5-1.5-1.5H17.3c-0.8,0-1.5,0.7-1.5,1.5v5.4c0,10.2,5.8,18.6,14.6,22.8H17.3 c-0.8,0-1.5,0.7-1.5,1.5s0.7,1.5,1.5,1.5h65.5c0.8,0,1.5-0.7,1.5-1.5s-0.7-1.5-1.5-1.5H69.6C78.5,78.3,84.3,69.9,84.3,59.7z M56.6,82.3H43.4c-14.3,0-24.6-9.5-24.6-22.6v-3.9h62.5v3.9C81.3,72.8,70.9,82.3,56.6,82.3z M85.3,21.1c-0.3-0.3-0.7-0.4-1.1-0.4 l-64.5,1c-0.8,0-1.5,0.7-1.5,1.5v4.1c0,0.8,0.7,1.5,1.5,1.5l5.5,0.1c-0.1,2.2,0.4,4.8,2.2,7.4c3,4.2,1.3,8.1,0.4,9.5H17.3 c-0.8,0-1.5,0.7-1.5,1.5v7.2c0,0.8,0.7,1.5,1.5,1.5h65.5c0.8,0,1.5-0.7,1.5-1.5v-7.2c0-0.8-0.7-1.5-1.5-1.5H51.2 c1.2-2.8,1.6-7-1.3-11.2c-1.3-1.9-1.7-3.7-1.7-5.3l36,0.6c0,0,0,0,0,0c0.4,0,0.8-0.2,1.1-0.4c0.3-0.3,0.4-0.7,0.4-1.1v-6.1 C85.7,21.8,85.5,21.4,85.3,21.1z M25.8,25.8l-4.5-0.1v-1.1l5-0.1C26.1,25,26,25.4,25.8,25.8z M39.8,24.4 C39.9,24.4,39.9,24.4,39.8,24.4l6.6-0.2c-0.3,0.6-0.5,1.2-0.7,1.9L38.9,26C39.3,25.1,39.8,24.5,39.8,24.4z M29.8,24.5l6.6-0.1 c-0.2,0.5-0.4,1-0.6,1.6L29,25.9C29.3,25.2,29.7,24.7,29.8,24.5z M29.9,34.5c-1.4-2-1.8-4-1.7-5.6l7,0.1c-0.1,2.2,0.5,4.7,2.2,7.2 c3,4.2,1.3,8.1,0.4,9.5h-6.6C32.4,42.9,32.8,38.7,29.9,34.5z M81.3,52.9H18.8v-4.2h62.5V52.9z M47.9,45.7h-6.6 c1.2-2.8,1.6-7-1.3-11.2c-1.4-2-1.8-3.9-1.7-5.4l7,0.1c-0.1,2.2,0.5,4.6,2.2,7.1C50.4,40.5,48.7,44.3,47.9,45.7z M82.7,26.7 l-33.8-0.5c0.4-1,0.9-1.7,1-1.8c0.1-0.1,0.1-0.2,0.2-0.3l32.7-0.5V26.7z M38.2,76.8c-6.5,0-9.2-4.9-9.6-7.5 c-0.1-0.8,0.4-1.6,1.2-1.7c0.8-0.1,1.6,0.4,1.7,1.2c0.1,0.6,1.2,5.4,7.2,5c0.8,0,1.5,0.6,1.6,1.4c0,0.8-0.6,1.5-1.4,1.6 C38.7,76.8,38.4,76.8,38.2,76.8z"/> </g> <g id="_x31_3"/> <g id="_x31_4"/> <g id="_x31_5"/> <g id="_x31_6"/> <g id="_x31_7"/> <g id="_x31_8"/> <g id="_x31_9"/> <g id="_x32_0"/> <g id="_x32_1"/> <g id="_x32_2"/> <g id="_x32_3"/> <g id="_x32_4"/> </g>
</svg>